# xmcd
#
# Track frame offsets:
#	150
#	12160
#	26604
#	40178
#	59972
#	74898
#	88977
#	103619
#	118490
#	132469
#	147042
#	161823
#	178089
#	191679
#	209234
#	222659
#	236793
#	251056
#	264436
#	283409
#	299543
#	316880
#	331061
#	346234
#
# Disc length: 4777 seconds
#
# Revision: 1
# Processed by: cddbd v1.5.2PL0 Copyright (c) Steve Scherf et al.
# Submitted via: audiograbber 1.83.01
#
DISCID=9e12a718
DTITLE=Tom Astor - Take It Easy - Collection (Ausschnitt)
DYEAR=2010
DGENRE=Country
TTITLE0=Hallo, Guten Morgen Deutschland
TTITLE1=Alles Gute
TTITLE2=Alter Freund, Überhol Dich Nicht
TTITLE3=Daddy, Wenn Ich Groß Bin, Fahr ich Diesel
TTITLE4=Dieses Lied Ist Für Die Mädchen
TTITLE5=Du Bist Da (Wenn's Drum Geht)
TTITLE6=Ein Brief Aus Kalifornien
TTITLE7=Geistertruck
TTITLE8=Hautnah
TTITLE9=Hey Darling
TTITLE10=Ich Will Zurück Zu Mir
TTITLE11=Junger Adler
TTITLE12=Kleiner Rebell
TTITLE13=Mit Einer Starken Frau
TTITLE14=Redneck Riviera
TTITLE15=Sie Ist Wie Ein Neues Leben
TTITLE16=Take it Easy - Nimm's Leicht
TTITLE17=Hungrige Herzen
TTITLE18=Ich Bin Kein Dichter, Kein Poet
TTITLE19=Ja, Ich Bin Einfach So Wie Du
TTITLE20=Worauf Willst Du Noch Warten
TTITLE21=Ehrlichkeit
TTITLE22=Und Ich Bin Dein Freund
TTITLE23=Radwechsel
EXTD=
EXTT0=
EXTT1=
EXTT2=
EXTT3=
EXTT4=
EXTT5=
EXTT6=
EXTT7=
EXTT8=
EXTT9=
EXTT10=
EXTT11=
EXTT12=
EXTT13=
EXTT14=
EXTT15=
EXTT16=
EXTT17=
EXTT18=
EXTT19=
EXTT20=
EXTT21=
EXTT22=
EXTT23=
PLAYORDER=
